<mxfile host="app.diagrams.net" agent="Mozilla/5.0 (Windows NT 10.0; Win64; x64) AppleWebKit/537.36 (KHTML, like Gecko) Chrome/137.0.0.0 Safari/537.36" version="27.1.6">
  <diagram name="Page-1" id="wk6wAtFcDwRdvndeJLqF">
    <mxGraphModel dx="969" dy="479" grid="1" gridSize="10" guides="1" tooltips="1" connect="1" arrows="1" fold="1" page="1" pageScale="1" pageWidth="827" pageHeight="1169" math="0" shadow="0">
      <root>
        <mxCell id="0" />
        <mxCell id="1" parent="0" />
        <mxCell id="lNW7MkjH-JcjPd9_zLlk-6" style="edgeStyle=orthogonalEdgeStyle;rounded=0;orthogonalLoop=1;jettySize=auto;html=1;exitX=0.5;exitY=1;exitDx=0;exitDy=0;" edge="1" parent="1" target="lNW7MkjH-JcjPd9_zLlk-2">
          <mxGeometry relative="1" as="geometry">
            <mxPoint x="395" y="140.0000000000001" as="sourcePoint" />
          </mxGeometry>
        </mxCell>
        <mxCell id="lNW7MkjH-JcjPd9_zLlk-1" value="&lt;font style=&quot;font-size: 14px;&quot;&gt;User wants to access www.foobar.com&lt;/font&gt;" style="rounded=1;whiteSpace=wrap;html=1;" vertex="1" parent="1">
          <mxGeometry x="260" y="70" width="260" height="70" as="geometry" />
        </mxCell>
        <mxCell id="lNW7MkjH-JcjPd9_zLlk-14" style="edgeStyle=orthogonalEdgeStyle;rounded=0;orthogonalLoop=1;jettySize=auto;html=1;exitX=0.5;exitY=1;exitDx=0;exitDy=0;" edge="1" parent="1" source="lNW7MkjH-JcjPd9_zLlk-2">
          <mxGeometry relative="1" as="geometry">
            <mxPoint x="394.5882352941177" y="330" as="targetPoint" />
          </mxGeometry>
        </mxCell>
        <mxCell id="lNW7MkjH-JcjPd9_zLlk-2" value="&lt;font style=&quot;font-size: 14px;&quot;&gt;DNS server&lt;/font&gt;&lt;div&gt;&lt;font size=&quot;3&quot;&gt;www.foobar.com(8.8.8.8)&lt;/font&gt;&lt;/div&gt;" style="rounded=1;whiteSpace=wrap;html=1;" vertex="1" parent="1">
          <mxGeometry x="270" y="230" width="250" height="60" as="geometry" />
        </mxCell>
        <mxCell id="lNW7MkjH-JcjPd9_zLlk-34" style="edgeStyle=orthogonalEdgeStyle;rounded=0;orthogonalLoop=1;jettySize=auto;html=1;exitX=0.25;exitY=1;exitDx=0;exitDy=0;" edge="1" parent="1" source="lNW7MkjH-JcjPd9_zLlk-16">
          <mxGeometry relative="1" as="geometry">
            <mxPoint x="280.0000000000002" y="480" as="targetPoint" />
          </mxGeometry>
        </mxCell>
        <mxCell id="lNW7MkjH-JcjPd9_zLlk-35" style="edgeStyle=orthogonalEdgeStyle;rounded=0;orthogonalLoop=1;jettySize=auto;html=1;exitX=0.75;exitY=1;exitDx=0;exitDy=0;entryX=0.25;entryY=0;entryDx=0;entryDy=0;" edge="1" parent="1" source="lNW7MkjH-JcjPd9_zLlk-16" target="lNW7MkjH-JcjPd9_zLlk-32">
          <mxGeometry relative="1" as="geometry" />
        </mxCell>
        <mxCell id="lNW7MkjH-JcjPd9_zLlk-16" value="&lt;font style=&quot;font-size: 14px;&quot;&gt;Load Balancer(HAProxy)(IP:8.8.8.8)&lt;/font&gt;&lt;div&gt;&lt;font style=&quot;font-size: 14px;&quot;&gt;Round Robin Algorithm&lt;/font&gt;&lt;/div&gt;" style="rounded=1;whiteSpace=wrap;html=1;" vertex="1" parent="1">
          <mxGeometry x="260" y="330" width="270" height="80" as="geometry" />
        </mxCell>
        <mxCell id="lNW7MkjH-JcjPd9_zLlk-22" style="edgeStyle=orthogonalEdgeStyle;rounded=0;orthogonalLoop=1;jettySize=auto;html=1;exitX=0.5;exitY=1;exitDx=0;exitDy=0;" edge="1" parent="1" source="lNW7MkjH-JcjPd9_zLlk-18" target="lNW7MkjH-JcjPd9_zLlk-20">
          <mxGeometry relative="1" as="geometry" />
        </mxCell>
        <mxCell id="lNW7MkjH-JcjPd9_zLlk-18" value="&lt;font style=&quot;font-size: 14px;&quot;&gt;&lt;br&gt;&lt;/font&gt;&lt;div&gt;&lt;font size=&quot;3&quot;&gt;Web server&lt;/font&gt;&lt;/div&gt;&lt;div&gt;&lt;font size=&quot;3&quot;&gt;(Nginx)&lt;/font&gt;&lt;/div&gt;" style="rounded=1;whiteSpace=wrap;html=1;" vertex="1" parent="1">
          <mxGeometry x="210" y="502" width="120" height="60" as="geometry" />
        </mxCell>
        <mxCell id="lNW7MkjH-JcjPd9_zLlk-20" value="&lt;font style=&quot;font-size: 14px;&quot;&gt;Application Server&lt;/font&gt;" style="rounded=1;whiteSpace=wrap;html=1;" vertex="1" parent="1">
          <mxGeometry x="210" y="607" width="120" height="60" as="geometry" />
        </mxCell>
        <mxCell id="lNW7MkjH-JcjPd9_zLlk-27" style="edgeStyle=orthogonalEdgeStyle;rounded=0;orthogonalLoop=1;jettySize=auto;html=1;exitX=1;exitY=0.5;exitDx=0;exitDy=0;startArrow=block;startFill=1;" edge="1" parent="1" source="lNW7MkjH-JcjPd9_zLlk-25" target="lNW7MkjH-JcjPd9_zLlk-26">
          <mxGeometry relative="1" as="geometry" />
        </mxCell>
        <mxCell id="lNW7MkjH-JcjPd9_zLlk-25" value="&lt;font style=&quot;font-size: 14px;&quot;&gt;Mysql Primary&lt;/font&gt;&lt;div&gt;&lt;font size=&quot;3&quot;&gt;(Master)&lt;/font&gt;&lt;/div&gt;&lt;div&gt;&lt;font size=&quot;3&quot;&gt;Read+write&lt;/font&gt;&lt;/div&gt;" style="rounded=1;whiteSpace=wrap;html=1;" vertex="1" parent="1">
          <mxGeometry x="190" y="770" width="174" height="70" as="geometry" />
        </mxCell>
        <mxCell id="lNW7MkjH-JcjPd9_zLlk-26" value="&lt;font style=&quot;font-size: 14px;&quot;&gt;Mysql Replica&lt;/font&gt;&lt;div&gt;&lt;font size=&quot;3&quot;&gt;(slave)&lt;/font&gt;&lt;/div&gt;&lt;div&gt;&lt;font size=&quot;3&quot;&gt;Read only&lt;/font&gt;&lt;/div&gt;" style="rounded=1;whiteSpace=wrap;html=1;" vertex="1" parent="1">
          <mxGeometry x="464" y="770" width="166" height="70" as="geometry" />
        </mxCell>
        <mxCell id="lNW7MkjH-JcjPd9_zLlk-29" value="" style="swimlane;startSize=0;" vertex="1" parent="1">
          <mxGeometry x="180" y="485" width="200" height="200" as="geometry" />
        </mxCell>
        <mxCell id="lNW7MkjH-JcjPd9_zLlk-31" value="" style="swimlane;startSize=0;" vertex="1" parent="1">
          <mxGeometry x="180" y="485" width="200" height="200" as="geometry" />
        </mxCell>
        <mxCell id="lNW7MkjH-JcjPd9_zLlk-38" style="edgeStyle=orthogonalEdgeStyle;rounded=0;orthogonalLoop=1;jettySize=auto;html=1;exitX=0.5;exitY=1;exitDx=0;exitDy=0;entryX=0.75;entryY=0;entryDx=0;entryDy=0;" edge="1" parent="1" source="lNW7MkjH-JcjPd9_zLlk-32" target="lNW7MkjH-JcjPd9_zLlk-33">
          <mxGeometry relative="1" as="geometry" />
        </mxCell>
        <mxCell id="lNW7MkjH-JcjPd9_zLlk-32" value="" style="swimlane;startSize=0;" vertex="1" parent="1">
          <mxGeometry x="460" y="490" width="200" height="200" as="geometry" />
        </mxCell>
        <mxCell id="lNW7MkjH-JcjPd9_zLlk-23" style="edgeStyle=orthogonalEdgeStyle;rounded=0;orthogonalLoop=1;jettySize=auto;html=1;exitX=0.5;exitY=1;exitDx=0;exitDy=0;entryX=0.5;entryY=0;entryDx=0;entryDy=0;" edge="1" parent="lNW7MkjH-JcjPd9_zLlk-32" source="lNW7MkjH-JcjPd9_zLlk-19">
          <mxGeometry relative="1" as="geometry">
            <mxPoint x="100.00000000000023" y="117" as="targetPoint" />
          </mxGeometry>
        </mxCell>
        <mxCell id="lNW7MkjH-JcjPd9_zLlk-19" value="&lt;font style=&quot;font-size: 14px;&quot;&gt;Web server&lt;/font&gt;&lt;div&gt;&lt;font size=&quot;3&quot;&gt;(Nginx)&lt;/font&gt;&lt;/div&gt;" style="rounded=1;whiteSpace=wrap;html=1;" vertex="1" parent="lNW7MkjH-JcjPd9_zLlk-32">
          <mxGeometry x="40" y="17" width="120" height="60" as="geometry" />
        </mxCell>
        <mxCell id="lNW7MkjH-JcjPd9_zLlk-21" value="&lt;font style=&quot;font-size: 14px;&quot;&gt;Application Server&lt;/font&gt;" style="rounded=1;whiteSpace=wrap;html=1;" vertex="1" parent="lNW7MkjH-JcjPd9_zLlk-32">
          <mxGeometry x="40" y="120" width="120" height="60" as="geometry" />
        </mxCell>
        <mxCell id="lNW7MkjH-JcjPd9_zLlk-33" value="" style="swimlane;startSize=0;" vertex="1" parent="1">
          <mxGeometry x="170" y="740" width="500" height="140" as="geometry" />
        </mxCell>
        <mxCell id="lNW7MkjH-JcjPd9_zLlk-37" style="edgeStyle=orthogonalEdgeStyle;rounded=0;orthogonalLoop=1;jettySize=auto;html=1;exitX=0.5;exitY=1;exitDx=0;exitDy=0;entryX=0.293;entryY=0.023;entryDx=0;entryDy=0;entryPerimeter=0;" edge="1" parent="1" source="lNW7MkjH-JcjPd9_zLlk-31" target="lNW7MkjH-JcjPd9_zLlk-33">
          <mxGeometry relative="1" as="geometry" />
        </mxCell>
      </root>
    </mxGraphModel>
  </diagram>
</mxfile>
